<svg width="100" height="38" fill="none" xmlns="http://www.w3.org/2000/svg"><path d="M0 0h38.253l-6.6265 6.75889H6.77711V31.3913L0 38V0ZM38.5542 25.6838V12.4664h-6.8819l-3.5096 3.3044h7.2289v6.6086H21.8832l-3.5097 3.3044h20.1807Z" fill="#807F79"/><path d="M25.6024 12.4664H12.5v13.0672l13.1024-13.0672Z" fill="#807F79"/><path fill-rule="evenodd" clip-rule="evenodd" d="M40.3614 12.4664v13.0672h3.1627v-4.9565h9.1867l2.7109 5.0316h3.6144l-2.7108-5.0316h2.7108v-8.1107H40.3614Zm15.5121 4.9565v-1.8023H43.5241v1.8023h12.3494Z" fill="#807F79"/><path d="M64.006 15.6206v6.909h12.3494v-1.9525H65.6627v-3.1542h13.8554v8.2609H60.8434V12.4664h18.6747v3.1542H64.006ZM81.0241 12.4664v3.1542H100v-3.1542H81.0241ZM81.0241 20.5771v-3.1542H100v3.1542H81.0241ZM81.0241 22.3794v3.1542H100v-3.1542H81.0241Z" fill="#807F79"/></svg>