<svg width="24" height="24" fill="none" xmlns="http://www.w3.org/2000/svg"><path d="M24 12.27c0-.79-.0716-1.54-.1942-2.27H12.2605v4.51h6.6105c-.2963 1.48-1.1648 2.73-2.4521 3.58v3h3.9438C22.6717 19 24 15.92 24 12.27Z" fill="#4285F4"/><path d="M12.2605 24c3.3104 0 6.0792-1.08 8.1022-2.91l-3.9438-3c-1.1035.72-2.5032 1.16-4.1584 1.16-3.19793 0-5.90547-2.11-6.87609-4.96H1.31799v3.09C3.33076 21.3 7.4687 24 12.2605 24Z" fill="#34A853"/><path d="M5.38442 14.2899c-.25543-.72-.38825-1.49-.38825-2.29s.14304-1.57.38825-2.29003v-3.09H1.31801C.480203 8.23987 0 10.0599 0 11.9999c0 1.94.480203 3.76 1.31801 5.38l4.06641-3.09Z" fill="#FBBC05"/><path d="M12.2605 4.75c1.8085 0 3.4228.61 4.6999 1.8l3.4942-3.42C18.3397 1.19 15.5709 0 12.2605 0 7.4687 0 3.33076 2.7 1.31799 6.62l4.06642 3.09c.97062-2.85 3.67816-4.96 6.87609-4.96Z" fill="#EA4335"/></svg>