<svg width="26" height="21" fill="none" xmlns="http://www.w3.org/2000/svg"><path d="M26 2.48586c-.9565.42172-1.9847.70661-3.0636.83478 1.1012-.65609 1.9472-1.69501 2.3453-2.933029-1.0307.607641-2.1723 1.048739-3.3874 1.286469C20.9214.643688 19.5351 0 18.0008 0c-2.9458 0-5.3343 2.37358-5.3343 5.30132 0 .41552.0472.82019.1382 1.20818C8.37145 6.28844 4.44102 4.17778 1.81008.970313 1.35092 1.75328 1.0878 2.66391 1.0878 3.63551c0 1.83934.94172 3.46199 2.37302 4.41267-.87438-.02752-1.69689-.26603-2.41605-.66307-.00061.02209-.00061.04432-.00061.06667 0 2.56852 1.83873 4.71112 4.27896 5.19852-.44759.1212-.91884.1859-1.40531.1859-.34371 0-.67781-.0334-1.00359-.0951.67886 2.1061 2.64875 3.6389 4.98303 3.6815-1.82559 1.422-4.12555 2.2696-6.62481 2.2696-.430559 0-.855139-.0252-1.27244-.0742C2.36067 20.1223 5.16452 21 8.17688 21 17.9884 21 23.3539 12.9218 23.3539 5.91594c0-.22985-.0052-.45841-.0155-.68594 1.0421-.74731 1.9464-1.68093 2.6615-2.74414H26Z" fill="#807F79"/></svg>