<svg width="28" height="21" fill="none" xmlns="http://www.w3.org/2000/svg"><path d="M23.7032 1.74079C21.9186.935051 20.0048.341422 18.0039.00142624c-.0365-.00656182-.0729.00983656-.0916.04263396-.2462.4307328-.5188.9926598-.7097 1.4343298-2.1521-.31703-4.2932-.31703-6.4012 0-.191-.45149-.4735-1.003597-.7207-1.4343298-.0188-.0317032-.0552-.0481015-.09164-.04263396C7.98923.340336 6.07549.933965 4.28976 1.74079c-.01546.00655-.02871.0175-.03751.0317C.62229 7.10863-.372109 12.3136.11571 17.4541c.002207.0251.016555.0492.036421.0645 2.394949 1.7306 4.714859 2.7812 6.991699 3.4776.03643.0109.07504-.0022.09823-.0317.53859-.7237 1.01869-1.4868 1.43033-2.2893.02429-.047.0011-.1027-.04855-.1213-.76152-.2843-1.48664-.6308-2.18416-1.0244-.05517-.0317-.05958-.1093-.00883-.1465.14678-.1082.29361-.2209.43376-.3346.02536-.0207.0607-.0251.09051-.012 4.58238 2.0586 9.54338 2.0586 14.07168 0 .0298-.0142.0651-.0098.0916.011.1402.1137.287.2274.4349.3356.0507.0372.0474.1148-.0078.1465-.6975.4012-1.4226.7401-2.1852 1.0233-.0497.0186-.0718.0754-.0475.1224.4205.8014.9006 1.5644 1.4292 2.2882.0221.0306.0618.0437.0983.0328 2.2879-.6964 4.6078-1.747 7.0027-3.4776.021-.0153.0342-.0383.0364-.0634.5839-5.943-.9778-11.10527-4.1398-15.68163-.0077-.01528-.021-.02623-.0364-.03278ZM9.35669 14.3241c-1.37961 0-2.51637-1.2463-2.51637-2.7769 0-1.5305 1.11472-2.77681 2.51637-2.77681 1.41271 0 2.53841 1.25721 2.51631 2.77681 0 1.5306-1.1147 2.7769-2.51631 2.7769Zm9.30381 0c-1.3795 0-2.5163-1.2463-2.5163-2.7769 0-1.5305 1.1147-2.77681 2.5163-2.77681 1.4127 0 2.5385 1.25721 2.5164 2.77681 0 1.5306-1.1037 2.7769-2.5164 2.7769Z" fill="#807F79"/></svg>